<svg width="20" height="19" viewBox="0 0 20 19" fill="none" xmlns="http://www.w3.org/2000/svg">
<path d="M13.8649 7.94025C13.2475 6.4118 11.7497 5.33333 9.99999 5.33333C7.6988 5.33333 5.83332 7.19881 5.83332 9.5C5.83332 11.2497 6.91179 12.7475 8.44024 13.3649M9.92962 17.833C5.35965 17.7952 1.66666 14.0789 1.66666 9.5C1.66666 4.89763 5.39762 1.16667 9.99999 1.16667C14.5789 1.16667 18.2952 4.85966 18.333 9.42963M10.0477 10.6863L12.2249 17.2179C12.4985 18.0385 13.6592 18.0385 13.9327 17.2179L14.7367 14.806C14.8263 14.5372 15.0372 14.3263 15.306 14.2367L17.7179 13.4327C18.5385 13.1592 18.5385 11.9985 17.7179 11.7249L11.1863 9.54775C10.4826 9.3132 9.81318 9.98263 10.0477 10.6863Z" stroke="#8A8A8A" stroke-width="1.5" stroke-linecap="round" stroke-linejoin="round"/>
</svg>
