<svg width="18" height="18" viewBox="0 0 18 18" fill="none" xmlns="http://www.w3.org/2000/svg">
<path opacity="0.4" d="M7.36067 1.72614C8.03124 0.313458 9.96874 0.313455 10.6393 1.72613L11.7982 4.16761C12.0645 4.72858 12.5792 5.11741 13.1747 5.20736L15.7661 5.59887C17.2655 5.8254 17.8643 7.74125 16.7793 8.84086L14.9041 10.7413C14.4732 11.1779 14.2766 11.8071 14.3783 12.4236L14.821 15.1071C15.0771 16.6598 13.5097 17.8438 12.1685 17.1107L9.85068 15.8438C9.31811 15.5527 8.68187 15.5527 8.1493 15.8438L5.83146 17.1107C4.49032 17.8438 2.92284 16.6598 3.17898 15.1071L3.62165 12.4236C3.72336 11.8071 3.52675 11.1779 3.09589 10.7413L1.22072 8.84086C0.135712 7.74125 0.73443 5.8254 2.23387 5.59887L4.8253 5.20736C5.42073 5.11741 5.93546 4.72858 6.20175 4.16761L7.36067 1.72614Z" fill="#BE968E"/>
</svg>
